<svg width="22" height="22" viewBox="0 0 22 22" fill="none" xmlns="http://www.w3.org/2000/svg">
<path d="M5.5002 6.6002C5.5002 4.17014 7.47014 2.2002 9.9002 2.2002C12.3302 2.2002 14.3002 4.17014 14.3002 6.6002C14.3002 9.03025 12.3302 11.0002 9.9002 11.0002C7.47014 11.0002 5.5002 9.03025 5.5002 6.6002ZM9.9002 3.3002C8.07766 3.3002 6.6002 4.77766 6.6002 6.6002C6.6002 8.42273 8.07766 9.9002 9.9002 9.9002C11.7228 9.9002 13.2002 8.42273 13.2002 6.6002C13.2002 4.77766 11.7228 3.3002 9.9002 3.3002ZM2.2002 14.3002C2.2002 13.0758 3.19366 12.1002 4.4098 12.1002H13.938C13.8164 12.4443 13.7502 12.8145 13.7502 13.2002H4.4098C3.79284 13.2002 3.3002 13.6916 3.3002 14.3002C3.3002 15.7399 3.98468 16.8123 5.14008 17.5489C6.31769 18.2998 7.99157 18.7002 9.9002 18.7002C10.6785 18.7002 11.4178 18.6336 12.1002 18.5038V19.6216C11.3982 19.7415 10.6588 19.8002 9.9002 19.8002C7.85998 19.8002 5.95886 19.3756 4.54868 18.4765C3.11629 17.5631 2.2002 16.1605 2.2002 14.3002ZM14.8502 14.3002V13.2002C14.8502 11.9851 15.8351 11.0002 17.0502 11.0002C18.2653 11.0002 19.2502 11.9851 19.2502 13.2002V14.3002H19.8002C20.4077 14.3002 20.9002 14.7927 20.9002 15.4002V19.8002C20.9002 20.4077 20.4077 20.9002 19.8002 20.9002H14.3002C13.6927 20.9002 13.2002 20.4077 13.2002 19.8002V15.4002C13.2002 14.7927 13.6927 14.3002 14.3002 14.3002H14.8502ZM15.9502 13.2002V14.3002H18.1502V13.2002C18.1502 12.5927 17.6577 12.1002 17.0502 12.1002C16.4427 12.1002 15.9502 12.5927 15.9502 13.2002ZM17.8752 17.6002C17.8752 17.1446 17.5058 16.7752 17.0502 16.7752C16.5946 16.7752 16.2252 17.1446 16.2252 17.6002C16.2252 18.0558 16.5946 18.4252 17.0502 18.4252C17.5058 18.4252 17.8752 18.0558 17.8752 17.6002Z" fill="#212121"/>
</svg>
