<svg width="26" height="26" viewBox="0 0 26 26" fill="none" xmlns="http://www.w3.org/2000/svg">
<path d="M10.4001 7.7998C10.7591 7.7998 11.0501 8.09082 11.0501 8.4498C11.0501 8.7689 10.8202 9.0343 10.5169 9.08933L10.4001 9.0998H7.8001C5.64619 9.0998 3.9001 10.8459 3.9001 12.9998C3.9001 15.0676 5.50929 16.7594 7.54367 16.8915L7.8001 16.8998H10.4001C10.7591 16.8998 11.0501 17.1909 11.0501 17.5498C11.0501 17.869 10.8202 18.1343 10.5169 18.1893L10.4001 18.1998H7.8001C4.92822 18.1998 2.6001 15.8716 2.6001 12.9998C2.6001 10.2237 4.7756 7.95562 7.51479 7.8075L7.8001 7.7998H10.4001ZM18.2001 7.7998C21.0719 7.7998 23.4001 10.1279 23.4001 12.9998C23.4001 15.776 21.2245 18.0439 18.4854 18.1921L18.2001 18.1998H15.6001C15.2412 18.1998 14.9501 17.9087 14.9501 17.5498C14.9501 17.2307 15.1801 16.9653 15.4832 16.9103L15.6001 16.8998H18.2001C20.3541 16.8998 22.1001 15.1538 22.1001 12.9998C22.1001 10.9321 20.491 9.24014 18.4566 9.1081L18.2001 9.0998H15.6001C15.2412 9.0998 14.9501 8.80879 14.9501 8.4498C14.9501 8.13071 15.1801 7.86531 15.4832 7.81028L15.6001 7.7998H18.2001ZM7.8001 12.3498H18.2001C18.559 12.3498 18.8501 12.6408 18.8501 12.9998C18.8501 13.319 18.6201 13.5843 18.317 13.6393L18.2001 13.6498H7.8001C7.44112 13.6498 7.1501 13.3587 7.1501 12.9998C7.1501 12.6807 7.38004 12.4153 7.68325 12.3603L7.8001 12.3498Z" fill="#212121"/>
</svg>
