<svg width="22" height="22" viewBox="0 0 22 22" fill="none" xmlns="http://www.w3.org/2000/svg">
<path d="M18.6954 7.7802V7.6998C18.6954 6.18102 17.4641 4.9498 15.9454 4.9498H10.6308L8.8705 3.62975C8.5849 3.41558 8.23756 3.2998 7.88058 3.2998H4.9502C3.43127 3.2998 2.2 4.53124 2.2002 6.05017L2.20149 15.9474C2.20168 17.3547 3.25903 18.5151 4.62273 18.6776C4.71557 18.6938 4.81132 18.7021 4.90937 18.7021H16.698C17.4881 18.7021 18.1674 18.142 18.3178 17.3663L19.8109 9.66626C19.9748 8.82144 19.4658 8.02654 18.6954 7.7802ZM4.9502 4.3998H7.88058C7.99957 4.3998 8.11536 4.43839 8.21055 4.50978L10.1175 5.93983C10.2127 6.01122 10.3285 6.0498 10.4475 6.0498H15.9454C16.8566 6.0498 17.5954 6.78853 17.5954 7.6998V7.70216H6.4066C5.61675 7.70216 4.93769 8.2619 4.78693 9.03722L3.35906 16.3806C3.32155 16.2425 3.30152 16.0972 3.30149 15.9472L3.3002 6.05002C3.30007 5.13866 4.03885 4.3998 4.9502 4.3998ZM5.8667 9.24717C5.91696 8.98874 6.14331 8.80216 6.4066 8.80216H18.1911C18.5368 8.80216 18.7969 9.11742 18.731 9.45686L17.2379 17.1568C17.1878 17.4154 16.9613 17.6021 16.698 17.6021H4.90937C4.56349 17.6021 4.30346 17.2867 4.36948 16.9472L5.8667 9.24717Z" fill="#212121"/>
</svg>
