<svg width="22" height="22" viewBox="0 0 22 22" fill="none" xmlns="http://www.w3.org/2000/svg">
<path d="M12.6498 8.2498C13.2573 8.2498 13.7498 7.75731 13.7498 7.1498C13.7498 6.5423 13.2573 6.0498 12.6498 6.0498C12.0423 6.0498 11.5498 6.5423 11.5498 7.1498C11.5498 7.75731 12.0423 8.2498 12.6498 8.2498Z" fill="#212121"/>
<path d="M3.2998 6.5998C3.2998 4.77727 4.77727 3.2998 6.5998 3.2998H13.1998C15.0224 3.2998 16.4998 4.77727 16.4998 6.5998V13.1998C16.4998 15.0224 15.0224 16.4998 13.1998 16.4998H6.5998C4.77727 16.4998 3.2998 15.0224 3.2998 13.1998V6.5998ZM6.5998 4.3998C5.38478 4.3998 4.3998 5.38478 4.3998 6.5998V13.1998C4.3998 13.6078 4.51086 13.9898 4.70441 14.3174L8.34414 10.6776C9.2033 9.81849 10.5963 9.81849 11.4554 10.6776L15.0952 14.3174C15.2887 13.9898 15.3998 13.6078 15.3998 13.1998V6.5998C15.3998 5.38478 14.4149 4.3998 13.1998 4.3998H6.5998ZM10.6776 11.4554C10.248 11.0259 9.55153 11.0259 9.12196 11.4554L5.48222 15.0952C5.80975 15.2887 6.1918 15.3998 6.5998 15.3998H13.1998C13.6078 15.3998 13.9898 15.2887 14.3174 15.0952L10.6776 11.4554Z" fill="#212121"/>
<path d="M8.80004 18.7C7.82269 18.7 6.94458 18.2752 6.34033 17.6H13.75C15.7434 17.6 17.383 16.0851 17.5802 14.1437C17.5933 14.0142 17.6 13.8829 17.6 13.75V6.34033C18.2752 6.94458 18.7 7.82269 18.7 8.80004V13.75C18.7 16.4839 16.4839 18.7 13.75 18.7H8.80004Z" fill="#212121"/>
</svg>
