<svg width="22" height="22" viewBox="0 0 22 22" fill="none" xmlns="http://www.w3.org/2000/svg">
<path d="M9.89706 2.62672C10.5242 2.06323 11.4753 2.06323 12.1026 2.62672L18.1526 8.06242C18.5008 8.37536 18.6998 8.82155 18.6998 9.28979V17.0494C18.6998 17.9606 17.961 18.6994 17.0498 18.6994H14.2998C13.3886 18.6994 12.6498 17.9606 12.6498 17.0494V13.1994C12.6498 12.8955 12.4035 12.6494 12.0998 12.6494H9.8998C9.59605 12.6494 9.3498 12.8955 9.3498 13.1994V17.0494C9.3498 17.9606 8.61108 18.6994 7.6998 18.6994H4.9498C4.03853 18.6994 3.2998 17.9606 3.2998 17.0494V9.28979C3.2998 8.82155 3.49875 8.37536 3.84705 8.06242L9.89706 2.62672ZM11.3674 3.44497C11.1583 3.25715 10.8413 3.25715 10.6322 3.44497L4.58222 8.88066C4.46612 8.98498 4.3998 9.13371 4.3998 9.28979V17.0494C4.3998 17.3531 4.64605 17.5994 4.9498 17.5994H7.6998C8.00356 17.5994 8.2498 17.3531 8.2498 17.0494V13.1994C8.2498 12.288 8.98853 11.5494 9.8998 11.5494H12.0998C13.011 11.5494 13.7498 12.288 13.7498 13.1994V17.0494C13.7498 17.3531 13.9961 17.5994 14.2998 17.5994H17.0498C17.3535 17.5994 17.5998 17.3531 17.5998 17.0494V9.28979C17.5998 9.13371 17.5335 8.98498 17.4174 8.88066L11.3674 3.44497Z" fill="#212121"/>
</svg>
