<svg width="22" height="22" viewBox="0 0 22 22" fill="none" xmlns="http://www.w3.org/2000/svg">
<path d="M14.2998 12.0998C13.6923 12.0998 13.1998 11.6073 13.1998 10.9998C13.1998 10.3923 13.6923 9.89981 14.2998 9.89981C14.9073 9.89981 15.3998 10.3923 15.3998 10.9998C15.3998 11.6073 14.9073 12.0998 14.2998 12.0998ZM13.1998 14.2998C13.1998 14.9073 13.6923 15.3998 14.2998 15.3998C14.9073 15.3998 15.3998 14.9073 15.3998 14.2998C15.3998 13.6923 14.9073 13.1998 14.2998 13.1998C13.6923 13.1998 13.1998 13.6923 13.1998 14.2998ZM10.9998 12.0998C10.3923 12.0998 9.89981 11.6073 9.89981 10.9998C9.89981 10.3923 10.3923 9.89981 10.9998 9.89981C11.6073 9.89981 12.0998 10.3923 12.0998 10.9998C12.0998 11.6073 11.6073 12.0998 10.9998 12.0998ZM9.89981 14.2998C9.89981 14.9073 10.3923 15.3998 10.9998 15.3998C11.6073 15.3998 12.0998 14.9073 12.0998 14.2998C12.0998 13.6923 11.6073 13.1998 10.9998 13.1998C10.3923 13.1998 9.89981 13.6923 9.89981 14.2998ZM7.6998 12.0998C7.09229 12.0998 6.5998 11.6073 6.5998 10.9998C6.5998 10.3923 7.09229 9.89981 7.6998 9.89981C8.30732 9.89981 8.7998 10.3923 8.7998 10.9998C8.7998 11.6073 8.30732 12.0998 7.6998 12.0998ZM3.2998 6.0498C3.2998 4.53102 4.53102 3.2998 6.0498 3.2998H15.9498C17.4686 3.2998 18.6998 4.53102 18.6998 6.0498V15.9498C18.6998 17.4686 17.4686 18.6998 15.9498 18.6998H6.0498C4.53102 18.6998 3.2998 17.4686 3.2998 15.9498V6.0498ZM17.5998 7.6998H4.3998V15.9498C4.3998 16.861 5.13853 17.5998 6.0498 17.5998H15.9498C16.861 17.5998 17.5998 16.861 17.5998 15.9498V7.6998ZM15.9498 4.3998H6.0498C5.13853 4.3998 4.3998 5.13853 4.3998 6.0498V6.5998H17.5998V6.0498C17.5998 5.13853 16.861 4.3998 15.9498 4.3998Z" fill="#212121"/>
</svg>
