<svg width="22" height="22" viewBox="0 0 22 22" fill="none" xmlns="http://www.w3.org/2000/svg">
<path d="M5.5 7.1501C5.5 6.84634 5.74625 6.6001 6.05 6.6001H13.75C14.0537 6.6001 14.3 6.84634 14.3 7.1501C14.3 7.45385 14.0537 7.7001 13.75 7.7001H6.05C5.74625 7.7001 5.5 7.45385 5.5 7.1501Z" fill="#212121"/>
<path d="M11.55 9.8999C11.2463 9.8999 11 10.1461 11 10.4499C11 10.7537 11.2463 10.9999 11.55 10.9999H13.75C14.0537 10.9999 14.3 10.7537 14.3 10.4499C14.3 10.1461 14.0537 9.8999 13.75 9.8999H11.55Z" fill="#212121"/>
<path d="M11 13.7502C11 13.4465 11.2463 13.2002 11.55 13.2002H13.75C14.0537 13.2002 14.3 13.4465 14.3 13.7502C14.3 14.0539 14.0537 14.3002 13.75 14.3002H11.55C11.2463 14.3002 11 14.0539 11 13.7502Z" fill="#212121"/>
<path d="M6.05 9.8999C5.74625 9.8999 5.5 10.1461 5.5 10.4499V13.7499C5.5 14.0536 5.74625 14.2999 6.05 14.2999H9.35C9.65375 14.2999 9.9 14.0536 9.9 13.7499V10.4499C9.9 10.1461 9.65375 9.8999 9.35 9.8999H6.05ZM6.6 13.1999V10.9999H8.8V13.1999H6.6Z" fill="#212121"/>
<path d="M2.2002 5.4998C2.2002 4.28478 3.18517 3.2998 4.4002 3.2998H15.4002C16.6153 3.2998 17.6002 4.28478 17.6002 5.4998V6.5998C18.8153 6.5998 19.8002 7.58478 19.8002 8.7998V14.8498C19.8002 16.3686 18.569 17.5998 17.0502 17.5998H4.9502C3.43141 17.5998 2.2002 16.3686 2.2002 14.8498V5.4998ZM16.5002 5.4998C16.5002 4.8923 16.0077 4.3998 15.4002 4.3998H4.4002C3.79268 4.3998 3.3002 4.8923 3.3002 5.4998V14.8498C3.3002 15.761 4.03892 16.4998 4.9502 16.4998H17.0502C17.9614 16.4998 18.7002 15.761 18.7002 14.8498V8.7998C18.7002 8.1923 18.2077 7.6998 17.6002 7.6998V14.8498C17.6002 15.1535 17.3539 15.3998 17.0502 15.3998C16.7465 15.3998 16.5002 15.1535 16.5002 14.8498V5.4998Z" fill="#212121"/>
</svg>
